<!-- /public/hex-pattern.svg -->
<svg width="100" height="100" viewBox="0 0 100 100" xmlns="http://www.w3.org/2000/svg">
  <defs>
    <pattern id="hexagons" width="50" height="43.4" patternUnits="userSpaceOnUse" patternTransform="scale(0.5)">
      <polygon points="25,0 50,0 62.5,21.7 50,43.4 25,43.4 12.5,21.7" fill="none" stroke="#ffffff" stroke-width="0.5" />
      <polygon points="75,0 100,0 112.5,21.7 100,43.4 75,43.4 62.5,21.7" fill="none" stroke="#ffffff" stroke-width="0.5" />
      <polygon points="0,0 25,0 37.5,21.7 25,43.4 0,43.4 -12.5,21.7" fill="none" stroke="#ffffff" stroke-width="0.5" />
      <polygon points="25,43.4 50,43.4 62.5,65.1 50,86.8 25,86.8 12.5,65.1" fill="none" stroke="#ffffff" stroke-width="0.5" />
      <polygon points="75,43.4 100,43.4 112.5,65.1 100,86.8 75,86.8 62.5,65.1" fill="none" stroke="#ffffff" stroke-width="0.5" />
      <polygon points="0,43.4 25,43.4 37.5,65.1 25,86.8 0,86.8 -12.5,65.1" fill="none" stroke="#ffffff" stroke-width="0.5" />
    </pattern>
  </defs>
  <rect width="100" height="100" fill="url(#hexagons)" />
</svg>